<svg xmlns="http://www.w3.org/2000/svg" viewBox="0 0 500 500"><g transform="matrix(1.009239, 0, 0, 1.050813, 304.395081, 236.033218)"><ellipse fill="#fff" rx="29.998" ry="60.004" transform="matrix(0.999178, 0.040543, -0.043945, 0.99904, 0, 0)"/></g><g transform="matrix(0, 1, -1, 0, 228.574707, 280.21283)"><ellipse fill="#fff" rx="30" ry="95"/></g><g transform="matrix(1.147735, -0.013885, 0.011427, 0.944502, 153.031464, 208.27269)"><ellipse fill="#fff" rx="30" ry="95"/></g><g transform="matrix(0, 1, -1, 0, 195.248764, 132.984436)"><ellipse fill="#fff" rx="30" ry="60"/></g><rect width="130" height="35" x="50" y="264" fill="#fff" rx="10.191" ry="10.191" transform="matrix(0.707107, -0.707107, 0.707107, 0.707107, -9.533949, 46.081997)"/><rect/><path fill="#fff" d="M 315.725 76.166 Q 324.833 60.39 333.942 76.166 L 354.157 111.179 Q 363.265 126.955 345.048 126.955 L 304.619 126.955 Q 286.402 126.955 295.51 111.179 Z" bx="triangle 286.402 60.39 76.863 66.565 0.5 0.237 1@9b429a91" transform="matrix(0.771317, 0.636451, -0.636451, 0.771317, 141.723785, -180.325623)"/></svg>